# xmcd
#
# Track frame offsets:
#	150
#	15180
#	34382
#	54563
#	70607
#	86973
#	116613
#	131943
#	149308
#	161328
#	176802
#	186854
#	209733
#	225493
#	241173
#
# Disc length: 3438 seconds
#
# Revision: 1
# Processed by: cddbd v1.4PL0 Copyright (c) Steve Scherf et al.
# Submitted via: audiograbber 1.81.03
#
DISCID=d30d6c0f
DTITLE=Wayne Sauls and the Bear Facts Band - Emotional
DYEAR=2001
DGENRE=Blues
TTITLE0=Crazy 'Bout My Baby
TTITLE1=Trouble In Mind
TTITLE2=Big Legged Woman
TTITLE3=Don't Come Around Here
TTITLE4=The Road Is A Friend Of Mine
TTITLE5=It's Up To You
TTITLE6=Three-Quarter Moon
TTITLE7=Half Ain't Been Told
TTITLE8=Special Kind Of Mambo
TTITLE9=Set Me Adrift
TTITLE10=Hand In The Pocket
TTITLE11=Movin' Down The Road
TTITLE12=One Too Many
TTITLE13=it's Up To You (Radio Edit)
TTITLE14=Movin' Down The Road (Radio Edit)
EXTD=
EXTT0=
EXTT1=
EXTT2=
EXTT3=
EXTT4=
EXTT5=
EXTT6=
EXTT7=
EXTT8=
EXTT9=
EXTT10=
EXTT11=
EXTT12=
EXTT13=
EXTT14=
PLAYORDER=
